<?xml version="1.0" encoding="utf-8"?>
<!-- Generator: Adobe Illustrator 18.0.0, SVG Export Plug-In . SVG Version: 6.00 Build 0)  -->
<!DOCTYPE svg PUBLIC "-//W3C//DTD SVG 1.1//EN" "http://www.w3.org/Graphics/SVG/1.1/DTD/svg11.dtd">
<svg version="1.1" id="Layer_1" xmlns="http://www.w3.org/2000/svg" xmlns:xlink="http://www.w3.org/1999/xlink" x="0px" y="0px"
	 viewBox="0 0 141.7 141.7" enable-background="new 0 0 141.7 141.7" xml:space="preserve">
<g id="Harrix">
	<g>
		<path fill="#DE2E27" d="M20.4,71.9c0-28,22.7-50.8,50.8-50.8c17.8,0,33.3,9.2,42.4,22.9l15.9-6.9C112.2,8.2,75.7-4.1,43.9,9.8
			C12.3,23.5-3.6,58.6,5.8,90.9L21.7,84C20.8,80.1,20.4,76.1,20.4,71.9z"/>
		<path fill="#DE2E27" d="M136.2,53L120.2,60c1,3.9,1.4,7.9,1.4,12.1c0,28-22.7,50.8-50.8,50.8c-17.8,0-33.3-9.2-42.4-22.9
			l-15.9,6.9c17.2,29,53.7,41.2,85.3,27.5C129.8,120.4,145.6,85.4,136.2,53z"/>
	</g>
	<g>
		<path fill="#DE2E27" d="M42.1,103.1L28.5,71.8l9.2-4L52,75.2l4.2-15.5l9.2-4L79,87.2l-9.2,4l-7.8-18l-4.2,15.5l-14.3-7.5l7.8,18
			L42.1,103.1z"/>
		<path fill="#DE2E27" d="M99.7,78.1L79.3,69l9.2-4l-7.1-16.1l9.2-4l7.1,16.1l9.2-4L99.7,78.1z"/>
	</g>
</g>
</svg>
